<svg xmlns="http://www.w3.org/2000/svg">
<rect x="205" y="5" width="120" height="50" rx="0" ry="0" style="stroke:black;stroke-width:2;fill:white;"/>
<text x="212" y="35" style="fill:black;font-family:sans-serif;">xxm Project</text>

<rect x="405" y="5" width="120" height="50" rx="0" ry="0" style="stroke:black;stroke-width:2;fill:white;"/>
<text x="412" y="35" style="fill:black;font-family:sans-serif;">xxm Source File</text>

<line x1="325" y1="30" x2="405" y2="30" style="stroke:black;stroke-width:2;"/>
<line x1="395" y1="30" x2="405" y2="20" style="stroke:black;stroke-width:2;"/>
<line x1="395" y1="30" x2="405" y2="40" style="stroke:black;stroke-width:2;"/>

<polygon points="335,120,350,120,350,60,380,60,380,120,395,120,365,150" style="stroke:black;stroke-width:2;fill:white;"/>
<text x="-120" y="368" transform="rotate(-90)" style="fill:black;font-family:sans-serif;">parse</text>

<rect x="205" y="155" width="120" height="50" rx="0" ry="0" style="stroke:black;stroke-width:2;fill:white;"/>
<text x="212" y="185" style="fill:black;font-family:sans-serif;">.dpr</text>

<rect x="405" y="155" width="120" height="50" rx="0" ry="0" style="stroke:black;stroke-width:2;fill:white;"/>
<text x="412" y="185" style="fill:black;font-family:sans-serif;">.pas</text>

<line x1="325" y1="180" x2="405" y2="180" style="stroke:black;stroke-width:2;"/>
<line x1="395" y1="180" x2="405" y2="170" style="stroke:black;stroke-width:2;"/>
<line x1="395" y1="180" x2="405" y2="190" style="stroke:black;stroke-width:2;"/>

<polygon points="335,270,350,270,350,210,380,210,380,270,395,270,365,300" style="stroke:black;stroke-width:2;fill:white;"/>
<text x="-275" y="368" transform="rotate(-90)" style="fill:black;font-family:sans-serif;">compile</text>

<rect x="305" y="310" width="120" height="50" rx="0" ry="0" style="stroke:black;stroke-width:2;fill:white;"/>
<text x="312" y="340" style="fill:black;font-family:sans-serif;">xxl Library</text>

<rect x="5" y="210" width="140" height="50" rx="0" ry="0" style="stroke:black;stroke-width:2;fill:white;"/>
<text x="12" y="230" style="fill:black;font-family:sans-serif;">IIS</text>
<text x="12" y="250" style="fill:black;font-family:sans-serif;">ISAPI Extension</text>

<rect x="5" y="270" width="140" height="50" rx="0" ry="0" style="stroke:black;stroke-width:2;fill:white;"/>
<text x="12" y="290" style="fill:black;font-family:sans-serif;">Apache httpd 2.0</text>
<text x="12" y="310" style="fill:black;font-family:sans-serif;">xxm-handler</text>

<rect x="5" y="330" width="140" height="50" rx="0" ry="0" style="stroke:black;stroke-width:2;fill:white;"/>
<text x="12" y="360" style="fill:black;font-family:sans-serif;">xxmHttp</text>

<rect x="5" y="390" width="140" height="50" rx="0" ry="0" style="stroke:black;stroke-width:2;fill:white;"/>
<text x="12" y="420" style="fill:black;font-family:sans-serif;">xxmCGI (xxmHost)</text>

<rect x="5" y="450" width="140" height="50" rx="0" ry="0" style="stroke:black;stroke-width:2;fill:white;"/>
<text x="12" y="470" style="fill:black;font-family:sans-serif;">http.sys</text>
<text x="12" y="490" style="fill:black;font-family:sans-serif;">HTTPAPI Extension</text>

<rect x="5" y="510" width="140" height="50" rx="0" ry="0" style="stroke:black;stroke-width:2;fill:white;"/>
<text x="12" y="530" style="fill:black;font-family:sans-serif;">...</text>
<text x="12" y="550" style="fill:black;font-family:sans-serif;">...</text>

<polyline points="150,210,160,220,160,550,150,560" style="stroke:black;stroke-width:2;fill:none;"/>
<polygon points="170,335,200,305,200,320,265,320,265,305,295,335,265,365,265,350,200,350,200,365" style="stroke:black;stroke-width:2;fill:white;"/>

</svg>